<svg width="40" height="40" viewBox="0 0 40 40" fill="none" xmlns="http://www.w3.org/2000/svg">
<rect width="40" height="40" rx="8" fill="#91CAFF"/>
<path d="M13 21L27 21" stroke="#15151F" stroke-width="1.5" stroke-linecap="round" stroke-linejoin="round"/>
<path d="M15 24L16 24" stroke="#15151F" stroke-width="1.5" stroke-linecap="round" stroke-linejoin="round"/>
<path d="M24 24H25" stroke="#15151F" stroke-width="1.5" stroke-linecap="round" stroke-linejoin="round"/>
<path d="M15 29V27" stroke="#15151F" stroke-width="1.5" stroke-linecap="round"/>
<path d="M11 17V15.5" stroke="#15151F" stroke-width="1.5" stroke-linecap="round"/>
<path d="M25 29V27" stroke="#15151F" stroke-width="1.5" stroke-linecap="round"/>
<path d="M29 17V15.5" stroke="#15151F" stroke-width="1.5" stroke-linecap="round"/>
<path d="M16 15H24" stroke="#15151F" stroke-width="1.5" stroke-linecap="round" stroke-linejoin="round"/>
<path d="M13 14C13 12.8954 13.8954 12 15 12H25C26.1046 12 27 12.8954 27 14V25C27 26.1046 26.1046 27 25 27H15C13.8954 27 13 26.1046 13 25V14Z" stroke="#15151F" stroke-width="1.5"/>
</svg>
