<svg width="40" height="40" viewBox="0 0 40 40" fill="none" xmlns="http://www.w3.org/2000/svg">
<path d="M0 8C0 3.58172 3.58172 0 8 0H32C36.4183 0 40 3.58172 40 8V32C40 36.4183 36.4183 40 32 40H8C3.58172 40 0 36.4183 0 32V8Z" fill="#FFD591"/>
<path d="M10.9995 13.5L10.9995 25C10.9995 26.8856 10.9995 27.8284 11.5853 28.4142C12.1711 29 13.1139 29 14.9995 29L24.9995 29C26.8851 29 27.8279 29 28.4137 28.4142C28.9995 27.8284 28.9995 26.8856 28.9995 25L28.9995 20C28.9995 18.1144 28.9995 17.1716 28.4137 16.5858C27.8279 16 26.8851 16 24.9995 16L13.4995 16C12.1188 16 10.9995 14.8807 10.9995 13.5ZM10.9995 13.5C10.9995 12.1193 12.1188 11 13.4995 11L26.2855 11C26.485 11 26.5847 11 26.6649 11.0281C26.8085 11.0783 26.9215 11.1912 26.9717 11.3349C26.9998 11.415 26.9998 11.5148 26.9998 11.7143V11.9997C26.9998 12.93 26.9998 13.3951 26.8975 13.7767C26.6201 14.8118 25.8116 15.6203 24.7764 15.8977C24.3949 16 23.9297 16 22.9995 16" stroke="#15151F" stroke-width="1.5" stroke-linecap="round" stroke-linejoin="round"/>
<path d="M26.0005 22.5L23.0005 22.5" stroke="#15151F" stroke-width="1.5" stroke-linecap="round"/>
</svg>
